<svg width="300" height="120" viewBox="0 0 300 120" fill="none" xmlns="http://www.w3.org/2000/svg">
<path d="M114 66H94" stroke="#F5C97A" stroke-width="1.5" stroke-linecap="round"/>
<path opacity="0.7" d="M115.458 55.8576L96.2683 50.223" stroke="#F5C97A" stroke-width="1.5" stroke-linecap="round"/>
<path d="M119.715 46.5369L102.89 35.7241" stroke="#F5C97A" stroke-width="1.5" stroke-linecap="round"/>
<path opacity="0.7" d="M126.425 38.793L113.328 23.678" stroke="#F5C97A" stroke-width="1.5" stroke-linecap="round"/>
<path d="M135.045 33.2532L126.737 15.0606" stroke="#F5C97A" stroke-width="1.5" stroke-linecap="round"/>
<path opacity="0.7" d="M144.877 30.3664L142.03 10.57" stroke="#F5C97A" stroke-width="1.5" stroke-linecap="round"/>
<path d="M155.123 30.3664L157.97 10.57" stroke="#F5C97A" stroke-width="1.5" stroke-linecap="round"/>
<path opacity="0.7" d="M164.955 33.2532L173.263 15.0606" stroke="#F5C97A" stroke-width="1.5" stroke-linecap="round"/>
<path d="M173.575 38.793L186.672 23.678" stroke="#F5C97A" stroke-width="1.5" stroke-linecap="round"/>
<path opacity="0.7" d="M180.285 46.5369L197.11 35.7241" stroke="#F5C97A" stroke-width="1.5" stroke-linecap="round"/>
<path d="M184.542 55.8576L203.732 50.223" stroke="#F5C97A" stroke-width="1.5" stroke-linecap="round"/>
<path opacity="0.7" d="M186 66H206" stroke="#F5C97A" stroke-width="1.5" stroke-linecap="round"/>
<mask id="mask0_267_704" style="mask-type:luminance" maskUnits="userSpaceOnUse" x="0" y="0" width="300" height="66">
<path d="M300 0H0V66H300V0Z" fill="white"/>
</mask>
<g mask="url(#mask0_267_704)">
<path d="M150 96C166.569 96 180 82.5685 180 66C180 49.4315 166.569 36 150 36C133.431 36 120 49.4315 120 66C120 82.5685 133.431 96 150 96Z" fill="#F5D299"/>
</g>
<path d="M62.7617 102.42C61.0817 102.42 59.5533 102.128 58.1767 101.545C56.8233 100.938 55.6567 100.11 54.6767 99.06C53.72 98.01 52.9733 96.8083 52.4367 95.455C51.9233 94.0783 51.6667 92.62 51.6667 91.08C51.6667 89.19 52.0283 87.5333 52.7517 86.11C53.4983 84.6867 54.4783 83.5083 55.6917 82.575C56.905 81.6183 58.235 80.9067 59.6817 80.44C61.1283 79.9733 62.5633 79.74 63.9867 79.74C65.7133 79.74 67.2533 80.055 68.6067 80.685C69.9833 81.2917 71.15 82.12 72.1067 83.17C73.0633 84.22 73.7867 85.41 74.2767 86.74C74.79 88.07 75.0467 89.435 75.0467 90.835C75.0467 92.4683 74.72 93.985 74.0667 95.385C73.4133 96.785 72.515 98.01 71.3717 99.06C70.2517 100.11 68.945 100.938 67.4517 101.545C65.9817 102.128 64.4183 102.42 62.7617 102.42ZM63.9517 101.58C65.3517 101.58 66.6 101.207 67.6967 100.46C68.8167 99.7133 69.6917 98.6167 70.3217 97.17C70.975 95.7 71.3017 93.9267 71.3017 91.85C71.3017 89.68 70.9517 87.755 70.2517 86.075C69.5517 84.395 68.5483 83.0767 67.2417 82.12C65.935 81.14 64.3717 80.65 62.5517 80.65C60.2883 80.65 58.5267 81.4667 57.2667 83.1C56.03 84.71 55.4117 86.95 55.4117 89.82C55.4117 91.5 55.6217 93.0633 56.0417 94.51C56.4617 95.9333 57.045 97.1817 57.7917 98.255C58.5617 99.3283 59.46 100.157 60.4867 100.74C61.5367 101.3 62.6917 101.58 63.9517 101.58ZM82.1735 92.515L81.9285 92.095C82.8152 91.045 83.5619 90.24 84.1685 89.68C84.7985 89.0967 85.3235 88.7 85.7435 88.49C86.1635 88.2567 86.5602 88.14 86.9335 88.14C87.4235 88.14 87.9135 88.315 88.4035 88.665C88.9169 88.9917 89.1735 89.4117 89.1735 89.925C89.1735 90.345 89.0452 90.695 88.7885 90.975C88.5319 91.255 88.1702 91.395 87.7035 91.395C87.2835 91.395 86.9569 91.2783 86.7235 91.045C86.4902 90.8117 86.2685 90.59 86.0585 90.38C85.8485 90.17 85.5569 90.065 85.1835 90.065C84.9969 90.065 84.7985 90.1233 84.5885 90.24C84.3785 90.3333 84.0869 90.555 83.7135 90.905C83.3402 91.255 82.8269 91.7917 82.1735 92.515ZM78.1835 102C78.1135 102 78.0785 101.93 78.0785 101.79C78.0785 101.65 78.1135 101.58 78.1835 101.58C78.9769 101.58 79.5019 101.417 79.7585 101.09C80.0152 100.763 80.1435 100.122 80.1435 99.165V92.48C80.1435 91.7333 80.0619 91.185 79.8985 90.835C79.7352 90.485 79.4435 90.31 79.0235 90.31C78.8135 90.31 78.5569 90.3567 78.2535 90.45C77.9502 90.5433 77.6235 90.6717 77.2735 90.835C77.1802 90.8583 77.0985 90.8117 77.0285 90.695C76.9819 90.555 76.9935 90.4733 77.0635 90.45L81.6485 88.21C81.7652 88.1633 81.8469 88.14 81.8935 88.14C82.1269 88.14 82.3602 88.4083 82.5935 88.945C82.8502 89.4817 82.9785 90.2633 82.9785 91.29V99.165C82.9785 99.795 83.0719 100.297 83.2585 100.67C83.4452 101.02 83.7719 101.265 84.2385 101.405C84.7052 101.522 85.3585 101.58 86.1985 101.58C86.2919 101.58 86.3385 101.65 86.3385 101.79C86.3385 101.93 86.2919 102 86.1985 102C85.5919 102 84.8919 101.988 84.0985 101.965C83.3285 101.942 82.4885 101.93 81.5785 101.93C80.9485 101.93 80.3302 101.942 79.7235 101.965C79.1402 101.988 78.6269 102 78.1835 102ZM96.0792 102.455C95.0992 102.455 94.1892 102.187 93.3492 101.65C92.5092 101.09 91.8325 100.308 91.3192 99.305C90.8292 98.3017 90.5842 97.0883 90.5842 95.665C90.5842 94.2883 90.8409 93.1217 91.3542 92.165C91.8675 91.185 92.5209 90.3917 93.3142 89.785C94.1309 89.1783 95.0059 88.735 95.9392 88.455C96.8725 88.175 97.7592 88.035 98.5992 88.035C99.4392 88.035 100.221 88.1517 100.944 88.385C101.668 88.6183 102.321 88.9217 102.904 89.295L102.239 91.955C101.726 90.9517 101.131 90.1933 100.454 89.68C99.8009 89.1433 98.9609 88.875 97.9342 88.875C96.6509 88.875 95.6242 89.33 94.8542 90.24C94.1075 91.1267 93.7342 92.5733 93.7342 94.58C93.7342 95.91 93.9092 97.0533 94.2592 98.01C94.6092 98.9433 95.0992 99.6667 95.7292 100.18C96.3592 100.67 97.0592 100.915 97.8292 100.915C98.7859 100.915 99.6375 100.647 100.384 100.11C101.131 99.5733 101.843 98.9317 102.519 98.185L102.834 98.465C102.344 99.025 101.761 99.62 101.084 100.25C100.431 100.857 99.6842 101.382 98.8442 101.825C98.0275 102.245 97.1059 102.455 96.0792 102.455ZM104.374 77.01V98.01C104.374 98.8267 104.456 99.41 104.619 99.76C104.783 100.087 105.063 100.25 105.459 100.25C105.646 100.25 105.868 100.215 106.124 100.145C106.404 100.075 106.708 99.97 107.034 99.83C107.104 99.7833 107.174 99.83 107.244 99.97C107.314 100.087 107.314 100.168 107.244 100.215L102.764 102.385C102.694 102.408 102.624 102.42 102.554 102.42C102.298 102.42 102.064 102.14 101.854 101.58C101.644 101.02 101.539 100.203 101.539 99.13V81.28C101.539 80.4867 101.469 79.9033 101.329 79.53C101.189 79.1567 100.909 78.97 100.489 78.97C100.303 78.97 100.093 79.0167 99.8592 79.11C99.6259 79.18 99.3692 79.2733 99.0892 79.39C98.9959 79.4367 98.9142 79.39 98.8442 79.25C98.7742 79.11 98.7742 79.0283 98.8442 79.005L103.744 76.66C103.791 76.6367 103.838 76.625 103.884 76.625C103.978 76.625 104.083 76.6717 104.199 76.765C104.316 76.8583 104.374 76.94 104.374 77.01ZM115.39 102.42C113.897 102.42 112.637 102.105 111.61 101.475C110.584 100.845 109.802 100.017 109.265 98.99C108.729 97.94 108.46 96.8317 108.46 95.665C108.46 94.2883 108.799 93.04 109.475 91.92C110.175 90.7767 111.109 89.8667 112.275 89.19C113.465 88.5133 114.807 88.175 116.3 88.175C117.677 88.175 118.739 88.49 119.485 89.12C120.232 89.7267 120.605 90.5667 120.605 91.64C120.605 91.8967 120.582 92.1183 120.535 92.305C120.489 92.4917 120.384 92.585 120.22 92.585H117.315C117.385 91.465 117.234 90.5667 116.86 89.89C116.487 89.2133 115.88 88.875 115.04 88.875C113.99 88.875 113.15 89.365 112.52 90.345C111.89 91.3017 111.575 92.5967 111.575 94.23C111.575 95.56 111.785 96.7267 112.205 97.73C112.649 98.71 113.267 99.48 114.06 100.04C114.877 100.6 115.845 100.88 116.965 100.88C117.549 100.88 118.155 100.798 118.785 100.635C119.415 100.448 119.999 100.18 120.535 99.83C120.582 99.7833 120.64 99.8067 120.71 99.9C120.804 99.9933 120.827 100.075 120.78 100.145C119.94 100.962 119.077 101.545 118.19 101.895C117.304 102.245 116.37 102.42 115.39 102.42ZM110.56 92.655L110.525 92.06L118.295 91.885V92.585L110.56 92.655ZM127.222 92.515L126.977 92.095C127.864 91.045 128.611 90.24 129.217 89.68C129.847 89.0967 130.372 88.7 130.792 88.49C131.212 88.2567 131.609 88.14 131.982 88.14C132.472 88.14 132.962 88.315 133.452 88.665C133.966 88.9917 134.222 89.4117 134.222 89.925C134.222 90.345 134.094 90.695 133.837 90.975C133.581 91.255 133.219 91.395 132.752 91.395C132.332 91.395 132.006 91.2783 131.772 91.045C131.539 90.8117 131.317 90.59 131.107 90.38C130.897 90.17 130.606 90.065 130.232 90.065C130.046 90.065 129.847 90.1233 129.637 90.24C129.427 90.3333 129.136 90.555 128.762 90.905C128.389 91.255 127.876 91.7917 127.222 92.515ZM123.232 102C123.162 102 123.127 101.93 123.127 101.79C123.127 101.65 123.162 101.58 123.232 101.58C124.026 101.58 124.551 101.417 124.807 101.09C125.064 100.763 125.192 100.122 125.192 99.165V92.48C125.192 91.7333 125.111 91.185 124.947 90.835C124.784 90.485 124.492 90.31 124.072 90.31C123.862 90.31 123.606 90.3567 123.302 90.45C122.999 90.5433 122.672 90.6717 122.322 90.835C122.229 90.8583 122.147 90.8117 122.077 90.695C122.031 90.555 122.042 90.4733 122.112 90.45L126.697 88.21C126.814 88.1633 126.896 88.14 126.942 88.14C127.176 88.14 127.409 88.4083 127.642 88.945C127.899 89.4817 128.027 90.2633 128.027 91.29V99.165C128.027 99.795 128.121 100.297 128.307 100.67C128.494 101.02 128.821 101.265 129.287 101.405C129.754 101.522 130.407 101.58 131.247 101.58C131.341 101.58 131.387 101.65 131.387 101.79C131.387 101.93 131.341 102 131.247 102C130.641 102 129.941 101.988 129.147 101.965C128.377 101.942 127.537 101.93 126.627 101.93C125.997 101.93 125.379 101.942 124.772 101.965C124.189 101.988 123.676 102 123.232 102ZM152.296 102.455C151.316 102.455 150.36 102.292 149.426 101.965C148.493 101.615 147.641 101.09 146.871 100.39L148.901 96.645C148.901 97.905 149.146 98.92 149.636 99.69C150.126 100.437 150.71 100.973 151.386 101.3C152.063 101.603 152.67 101.755 153.206 101.755C154.35 101.755 155.225 101.242 155.831 100.215C156.438 99.1883 156.741 97.73 156.741 95.84C156.741 93.7167 156.368 92.1533 155.621 91.15C154.875 90.1467 153.895 89.645 152.681 89.645C151.865 89.645 151.095 89.855 150.371 90.275C149.671 90.6717 149.03 91.1383 148.446 91.675L148.131 91.395C148.621 90.8817 149.146 90.3683 149.706 89.855C150.29 89.3417 150.943 88.91 151.666 88.56C152.413 88.21 153.241 88.035 154.151 88.035C155.178 88.035 156.123 88.28 156.986 88.77C157.85 89.2367 158.55 89.9483 159.086 90.905C159.623 91.8617 159.891 93.075 159.891 94.545C159.891 96.295 159.518 97.765 158.771 98.955C158.048 100.122 157.103 100.997 155.936 101.58C154.77 102.163 153.556 102.455 152.296 102.455ZM144.421 102.21C144.328 102.233 144.258 102.187 144.211 102.07C144.165 101.977 144.176 101.918 144.246 101.895C144.83 101.522 145.273 101.078 145.576 100.565C145.903 100.052 146.066 99.3283 146.066 98.395V81.28C146.066 80.4867 145.985 79.9033 145.821 79.53C145.681 79.1567 145.413 78.97 145.016 78.97C144.666 78.97 144.2 79.11 143.616 79.39C143.523 79.4133 143.441 79.355 143.371 79.215C143.325 79.075 143.325 78.9933 143.371 78.97L148.236 76.66C148.306 76.6367 148.365 76.625 148.411 76.625C148.505 76.625 148.61 76.6717 148.726 76.765C148.843 76.8583 148.901 76.94 148.901 77.01V100.145L144.421 102.21ZM176.4 88.49C176.446 88.49 176.47 88.56 176.47 88.7C176.47 88.84 176.446 88.91 176.4 88.91C175.676 88.91 175.058 89.2017 174.545 89.785C174.055 90.3683 173.611 91.2083 173.215 92.305L169.19 102.98C168.35 105.22 167.533 106.982 166.74 108.265C165.97 109.572 165.176 110.493 164.36 111.03C163.566 111.567 162.715 111.835 161.805 111.835C161.175 111.835 160.673 111.695 160.3 111.415C159.926 111.158 159.74 110.762 159.74 110.225C159.74 109.758 159.891 109.397 160.195 109.14C160.498 108.907 160.848 108.79 161.245 108.79C161.641 108.79 161.956 108.86 162.19 109C162.446 109.163 162.68 109.315 162.89 109.455C163.123 109.618 163.426 109.7 163.8 109.7C164.383 109.7 164.908 109.443 165.375 108.93C165.865 108.44 166.39 107.6 166.95 106.41C167.51 105.22 168.175 103.598 168.945 101.545L168.84 103.155L163.065 91.395C162.551 90.3683 162.143 89.7033 161.84 89.4C161.56 89.0733 161.198 88.91 160.755 88.91C160.708 88.91 160.685 88.84 160.685 88.7C160.685 88.56 160.708 88.49 160.755 88.49C161.198 88.49 161.653 88.5017 162.12 88.525C162.61 88.5483 163.076 88.56 163.52 88.56C164.336 88.56 165.048 88.5483 165.655 88.525C166.285 88.5017 166.845 88.49 167.335 88.49C167.405 88.49 167.44 88.56 167.44 88.7C167.44 88.84 167.405 88.91 167.335 88.91C166.541 88.91 165.993 89.0033 165.69 89.19C165.41 89.3767 165.41 89.7383 165.69 90.275L170.24 99.62L169.155 101.475L172.34 92.305C172.713 91.185 172.725 90.345 172.375 89.785C172.025 89.2017 171.325 88.91 170.275 88.91C170.228 88.91 170.205 88.84 170.205 88.7C170.205 88.56 170.228 88.49 170.275 88.49C170.835 88.49 171.36 88.5017 171.85 88.525C172.363 88.5483 173.016 88.56 173.81 88.56C174.346 88.56 174.79 88.5483 175.14 88.525C175.49 88.5017 175.91 88.49 176.4 88.49ZM194.532 80.125C194.579 80.125 194.602 80.195 194.602 80.335C194.602 80.475 194.579 80.545 194.532 80.545C193.879 80.545 193.389 80.615 193.062 80.755C192.759 80.895 192.549 81.14 192.432 81.49C192.339 81.84 192.292 82.3533 192.292 83.03V102.42C192.292 104.917 191.685 106.888 190.472 108.335C189.259 109.782 187.532 110.505 185.292 110.505C184.452 110.505 183.775 110.33 183.262 109.98C182.725 109.653 182.457 109.198 182.457 108.615C182.457 108.218 182.585 107.857 182.842 107.53C183.099 107.203 183.507 107.04 184.067 107.04C184.58 107.04 184.965 107.168 185.222 107.425C185.502 107.705 185.724 108.02 185.887 108.37C186.05 108.743 186.214 109.07 186.377 109.35C186.54 109.63 186.774 109.77 187.077 109.77C187.684 109.77 188.139 109.35 188.442 108.51C188.745 107.67 188.897 106.258 188.897 104.275V82.96C188.897 82.2833 188.815 81.7817 188.652 81.455C188.512 81.105 188.22 80.8717 187.777 80.755C187.334 80.615 186.669 80.545 185.782 80.545C185.735 80.545 185.712 80.475 185.712 80.335C185.712 80.195 185.735 80.125 185.782 80.125C186.482 80.125 187.229 80.1483 188.022 80.195C188.839 80.2183 189.679 80.23 190.542 80.23C191.335 80.23 192.059 80.2183 192.712 80.195C193.389 80.1483 193.995 80.125 194.532 80.125ZM202.582 102.385C201.346 102.385 200.366 101.988 199.642 101.195C198.942 100.402 198.592 99.34 198.592 98.01V92.795C198.592 91.9783 198.499 91.3833 198.312 91.01C198.149 90.6133 197.881 90.415 197.507 90.415C197.227 90.415 196.901 90.5083 196.527 90.695C196.434 90.7183 196.352 90.66 196.282 90.52C196.236 90.38 196.247 90.2983 196.317 90.275L200.727 88.21C200.797 88.1867 200.856 88.175 200.902 88.175C200.996 88.175 201.101 88.2217 201.217 88.315C201.334 88.4083 201.392 88.49 201.392 88.56V96.505C201.392 97.8117 201.626 98.7917 202.092 99.445C202.582 100.075 203.317 100.39 204.297 100.39C205.044 100.39 205.791 100.18 206.537 99.76C207.307 99.3167 207.937 98.745 208.427 98.045L208.637 98.465C207.751 99.6783 206.806 100.635 205.802 101.335C204.799 102.035 203.726 102.385 202.582 102.385ZM210.562 88.56V98.045C210.562 98.8383 210.644 99.41 210.807 99.76C210.971 100.087 211.251 100.25 211.647 100.25C211.834 100.25 212.056 100.215 212.312 100.145C212.569 100.052 212.872 99.9467 213.222 99.83C213.316 99.7833 213.397 99.83 213.467 99.97C213.537 100.087 213.526 100.168 213.432 100.215L208.847 102.42C208.801 102.443 208.754 102.455 208.707 102.455C208.497 102.455 208.287 102.175 208.077 101.615C207.867 101.055 207.762 100.262 207.762 99.235V92.795C207.762 91.9783 207.681 91.3833 207.517 91.01C207.354 90.6133 207.074 90.415 206.677 90.415C206.397 90.415 206.071 90.5083 205.697 90.695C205.604 90.7183 205.534 90.66 205.487 90.52C205.441 90.38 205.452 90.2983 205.522 90.275L209.932 88.21C209.979 88.1867 210.026 88.175 210.072 88.175C210.189 88.175 210.294 88.2217 210.387 88.315C210.504 88.4083 210.562 88.49 210.562 88.56ZM214.796 102C214.726 102 214.691 101.93 214.691 101.79C214.691 101.65 214.726 101.58 214.796 101.58C215.566 101.58 216.091 101.417 216.371 101.09C216.651 100.763 216.791 100.122 216.791 99.165V81.28C216.791 80.4633 216.721 79.88 216.581 79.53C216.441 79.1567 216.173 78.97 215.776 78.97C215.45 78.97 214.971 79.11 214.341 79.39C214.271 79.4133 214.201 79.355 214.131 79.215C214.061 79.075 214.05 78.9933 214.096 78.97L219.031 76.66C219.078 76.6367 219.125 76.625 219.171 76.625C219.265 76.625 219.37 76.6717 219.486 76.765C219.603 76.8583 219.661 76.94 219.661 77.01V99.165C219.661 100.122 219.79 100.763 220.046 101.09C220.326 101.417 220.863 101.58 221.656 101.58C221.726 101.58 221.761 101.65 221.761 101.79C221.761 101.93 221.726 102 221.656 102C221.213 102 220.688 101.988 220.081 101.965C219.498 101.942 218.88 101.93 218.226 101.93C217.573 101.93 216.943 101.942 216.336 101.965C215.753 101.988 215.24 102 214.796 102ZM230.849 102.42C229.356 102.42 228.096 102.105 227.069 101.475C226.042 100.845 225.261 100.017 224.724 98.99C224.187 97.94 223.919 96.8317 223.919 95.665C223.919 94.2883 224.257 93.04 224.934 91.92C225.634 90.7767 226.567 89.8667 227.734 89.19C228.924 88.5133 230.266 88.175 231.759 88.175C233.136 88.175 234.197 88.49 234.944 89.12C235.691 89.7267 236.064 90.5667 236.064 91.64C236.064 91.8967 236.041 92.1183 235.994 92.305C235.947 92.4917 235.842 92.585 235.679 92.585H232.774C232.844 91.465 232.692 90.5667 232.319 89.89C231.946 89.2133 231.339 88.875 230.499 88.875C229.449 88.875 228.609 89.365 227.979 90.345C227.349 91.3017 227.034 92.5967 227.034 94.23C227.034 95.56 227.244 96.7267 227.664 97.73C228.107 98.71 228.726 99.48 229.519 100.04C230.336 100.6 231.304 100.88 232.424 100.88C233.007 100.88 233.614 100.798 234.244 100.635C234.874 100.448 235.457 100.18 235.994 99.83C236.041 99.7833 236.099 99.8067 236.169 99.9C236.262 99.9933 236.286 100.075 236.239 100.145C235.399 100.962 234.536 101.545 233.649 101.895C232.762 102.245 231.829 102.42 230.849 102.42ZM226.019 92.655L225.984 92.06L233.754 91.885V92.585L226.019 92.655ZM241.176 90.31C241.176 90.8467 241.316 91.3133 241.596 91.71C241.876 92.1067 242.238 92.4683 242.681 92.795C243.125 93.0983 243.603 93.39 244.116 93.67C244.7 93.9967 245.26 94.335 245.796 94.685C246.356 95.035 246.823 95.4667 247.196 95.98C247.57 96.47 247.756 97.1117 247.756 97.905C247.756 98.6517 247.558 99.375 247.161 100.075C246.788 100.752 246.216 101.312 245.446 101.755C244.7 102.175 243.755 102.385 242.611 102.385C242.028 102.385 241.456 102.315 240.896 102.175C240.336 102.035 239.73 101.778 239.076 101.405C239.03 101.358 238.983 101.3 238.936 101.23C238.89 101.16 238.866 101.078 238.866 100.985L238.796 97.765C238.796 97.695 238.855 97.66 238.971 97.66C239.111 97.6367 239.193 97.66 239.216 97.73C239.473 98.4767 239.823 99.1533 240.266 99.76C240.733 100.367 241.246 100.845 241.806 101.195C242.39 101.522 242.985 101.685 243.591 101.685C244.175 101.685 244.63 101.533 244.956 101.23C245.306 100.903 245.47 100.413 245.446 99.76C245.446 99.1067 245.295 98.57 244.991 98.15C244.688 97.7067 244.303 97.3333 243.836 97.03C243.393 96.7267 242.926 96.4467 242.436 96.19C241.876 95.8867 241.328 95.5833 240.791 95.28C240.278 94.9533 239.846 94.545 239.496 94.055C239.146 93.5417 238.971 92.8767 238.971 92.06C238.971 91.1033 239.205 90.345 239.671 89.785C240.161 89.2017 240.791 88.7817 241.561 88.525C242.331 88.245 243.125 88.105 243.941 88.105C244.431 88.105 244.886 88.14 245.306 88.21C245.75 88.28 246.228 88.42 246.741 88.63C246.951 88.7 247.056 88.8283 247.056 89.015C247.056 89.4583 247.045 89.9133 247.021 90.38C246.998 90.8467 246.986 91.3717 246.986 91.955C246.986 92.0017 246.916 92.025 246.776 92.025C246.636 92.025 246.566 92.0017 246.566 91.955C246.566 91.4883 246.38 91.01 246.006 90.52C245.633 90.03 245.155 89.6217 244.571 89.295C244.011 88.945 243.416 88.77 242.786 88.77C242.366 88.77 241.993 88.875 241.666 89.085C241.34 89.295 241.176 89.7033 241.176 90.31Z" fill="#C67B5C"/>
</svg>
